<mxfile host="app.diagrams.net" modified="2022-04-23T22:24:04.256Z" agent="5.0 (Windows NT 10.0; Win64; x64) AppleWebKit/537.36 (KHTML, like Gecko) Chrome/99.0.4844.84 Safari/537.36 OPR/85.0.4341.72" etag="4o1Dc4B7JWrY1yIBab41" version="17.4.0" type="github">
  <diagram name="Page-1" id="e7e014a7-5840-1c2e-5031-d8a46d1fe8dd">
    <mxGraphModel dx="2166" dy="548" grid="1" gridSize="10" guides="1" tooltips="1" connect="1" arrows="1" fold="1" page="1" pageScale="1" pageWidth="1169" pageHeight="826" background="none" math="0" shadow="0">
      <root>
        <mxCell id="0" />
        <mxCell id="1" parent="0" />
        <mxCell id="QKftra9ThmQQgmsD9hC6-101" value="" style="ellipse;html=1;shape=startState;fillColor=#000000;strokeColor=#ff0000;" vertex="1" parent="1">
          <mxGeometry x="-110" y="659" width="30" height="30" as="geometry" />
        </mxCell>
        <mxCell id="QKftra9ThmQQgmsD9hC6-102" value="" style="edgeStyle=orthogonalEdgeStyle;html=1;verticalAlign=bottom;endArrow=open;endSize=8;strokeColor=#ff0000;rounded=0;exitX=1;exitY=0.5;exitDx=0;exitDy=0;entryX=0;entryY=0.5;entryDx=0;entryDy=0;" edge="1" parent="1" source="QKftra9ThmQQgmsD9hC6-101" target="QKftra9ThmQQgmsD9hC6-104">
          <mxGeometry relative="1" as="geometry">
            <mxPoint x="40" y="674" as="targetPoint" />
            <mxPoint x="80" y="709" as="sourcePoint" />
            <Array as="points" />
          </mxGeometry>
        </mxCell>
        <mxCell id="QKftra9ThmQQgmsD9hC6-103" value="Ingresa a &#xa;&#xa;pagina !Registrate!" style="text;strokeColor=none;fillColor=none;align=left;verticalAlign=top;spacingLeft=4;spacingRight=4;overflow=hidden;rotatable=0;points=[[0,0.5],[1,0.5]];portConstraint=eastwest;rounded=1;" vertex="1" parent="1">
          <mxGeometry x="-70" y="649" width="110" height="60" as="geometry" />
        </mxCell>
        <mxCell id="QKftra9ThmQQgmsD9hC6-107" style="edgeStyle=orthogonalEdgeStyle;rounded=0;orthogonalLoop=1;jettySize=auto;html=1;exitX=1;exitY=0.5;exitDx=0;exitDy=0;entryX=0;entryY=0.5;entryDx=0;entryDy=0;startArrow=none;" edge="1" parent="1" source="QKftra9ThmQQgmsD9hC6-112" target="QKftra9ThmQQgmsD9hC6-106">
          <mxGeometry relative="1" as="geometry" />
        </mxCell>
        <mxCell id="QKftra9ThmQQgmsD9hC6-104" value="Interfaz del sistema&amp;nbsp;" style="html=1;rounded=1;" vertex="1" parent="1">
          <mxGeometry x="80" y="643.5" width="210" height="61" as="geometry" />
        </mxCell>
        <mxCell id="QKftra9ThmQQgmsD9hC6-119" style="edgeStyle=orthogonalEdgeStyle;rounded=0;orthogonalLoop=1;jettySize=auto;html=1;exitX=0;exitY=0.5;exitDx=0;exitDy=0;entryX=0.5;entryY=0;entryDx=0;entryDy=0;startArrow=none;" edge="1" parent="1" source="QKftra9ThmQQgmsD9hC6-120" target="QKftra9ThmQQgmsD9hC6-104">
          <mxGeometry relative="1" as="geometry">
            <Array as="points">
              <mxPoint x="185" y="613" />
            </Array>
          </mxGeometry>
        </mxCell>
        <mxCell id="QKftra9ThmQQgmsD9hC6-126" style="edgeStyle=orthogonalEdgeStyle;rounded=0;orthogonalLoop=1;jettySize=auto;html=1;exitX=1;exitY=0.5;exitDx=0;exitDy=0;" edge="1" parent="1" source="QKftra9ThmQQgmsD9hC6-106" target="QKftra9ThmQQgmsD9hC6-122">
          <mxGeometry relative="1" as="geometry" />
        </mxCell>
        <mxCell id="QKftra9ThmQQgmsD9hC6-106" value="Comprobacion Nuevo usuario" style="html=1;rounded=1;" vertex="1" parent="1">
          <mxGeometry x="447.5" y="645.5" width="172.5" height="53" as="geometry" />
        </mxCell>
        <mxCell id="QKftra9ThmQQgmsD9hC6-110" style="edgeStyle=orthogonalEdgeStyle;rounded=0;orthogonalLoop=1;jettySize=auto;html=1;exitX=1;exitY=0.75;exitDx=0;exitDy=0;entryX=0.75;entryY=1;entryDx=0;entryDy=0;" edge="1" parent="1" source="QKftra9ThmQQgmsD9hC6-104" target="QKftra9ThmQQgmsD9hC6-104">
          <mxGeometry relative="1" as="geometry">
            <Array as="points">
              <mxPoint x="340" y="689" />
              <mxPoint x="340" y="740" />
              <mxPoint x="238" y="740" />
            </Array>
          </mxGeometry>
        </mxCell>
        <mxCell id="QKftra9ThmQQgmsD9hC6-111" value="Casillas en blanco" style="text;strokeColor=none;fillColor=none;align=left;verticalAlign=top;spacingLeft=4;spacingRight=4;overflow=hidden;rotatable=0;points=[[0,0.5],[1,0.5]];portConstraint=eastwest;rounded=1;" vertex="1" parent="1">
          <mxGeometry x="235" y="710" width="110" height="26" as="geometry" />
        </mxCell>
        <mxCell id="QKftra9ThmQQgmsD9hC6-112" value="Casillas llenas" style="text;strokeColor=none;fillColor=none;align=left;verticalAlign=top;spacingLeft=4;spacingRight=4;overflow=hidden;rotatable=0;points=[[0,0.5],[1,0.5]];portConstraint=eastwest;rounded=1;" vertex="1" parent="1">
          <mxGeometry x="320" y="659" width="90" height="26" as="geometry" />
        </mxCell>
        <mxCell id="QKftra9ThmQQgmsD9hC6-113" value="" style="edgeStyle=orthogonalEdgeStyle;rounded=0;orthogonalLoop=1;jettySize=auto;html=1;exitX=1;exitY=0.5;exitDx=0;exitDy=0;endArrow=none;" edge="1" parent="1" source="QKftra9ThmQQgmsD9hC6-104">
          <mxGeometry relative="1" as="geometry">
            <mxPoint x="290" y="674" as="sourcePoint" />
            <mxPoint x="320" y="674" as="targetPoint" />
            <Array as="points">
              <mxPoint x="320" y="674" />
            </Array>
          </mxGeometry>
        </mxCell>
        <mxCell id="QKftra9ThmQQgmsD9hC6-120" value="Usuario ya existe" style="text;strokeColor=none;fillColor=none;align=left;verticalAlign=top;spacingLeft=4;spacingRight=4;overflow=hidden;rotatable=0;points=[[0,0.5],[1,0.5]];portConstraint=eastwest;rounded=1;" vertex="1" parent="1">
          <mxGeometry x="290" y="600" width="110" height="26" as="geometry" />
        </mxCell>
        <mxCell id="QKftra9ThmQQgmsD9hC6-121" value="" style="edgeStyle=orthogonalEdgeStyle;rounded=0;orthogonalLoop=1;jettySize=auto;html=1;exitX=0.25;exitY=0;exitDx=0;exitDy=0;entryX=1;entryY=0.5;entryDx=0;entryDy=0;endArrow=none;" edge="1" parent="1" source="QKftra9ThmQQgmsD9hC6-106" target="QKftra9ThmQQgmsD9hC6-120">
          <mxGeometry relative="1" as="geometry">
            <mxPoint x="490.625" y="645.5" as="sourcePoint" />
            <mxPoint x="185" y="643.5" as="targetPoint" />
            <Array as="points">
              <mxPoint x="491" y="613" />
            </Array>
          </mxGeometry>
        </mxCell>
        <mxCell id="QKftra9ThmQQgmsD9hC6-122" value="" style="ellipse;html=1;shape=endState;fillColor=#000000;strokeColor=#ff0000;rounded=1;" vertex="1" parent="1">
          <mxGeometry x="790" y="657" width="30" height="30" as="geometry" />
        </mxCell>
        <mxCell id="QKftra9ThmQQgmsD9hC6-123" value="Guardando nuevo&#xa; &#xa;usuario en base de datos" style="text;strokeColor=none;fillColor=none;align=left;verticalAlign=top;spacingLeft=4;spacingRight=4;overflow=hidden;rotatable=0;points=[[0,0.5],[1,0.5]];portConstraint=eastwest;rounded=1;" vertex="1" parent="1">
          <mxGeometry x="630" y="649" width="150" height="51" as="geometry" />
        </mxCell>
      </root>
    </mxGraphModel>
  </diagram>
</mxfile>
